<?xml version="1.0" encoding="UTF-8" standalone="no"?>
<svg
   xmlns:dc="http://purl.org/dc/elements/1.1/"
   xmlns:cc="http://creativecommons.org/ns#"
   xmlns:rdf="http://www.w3.org/1999/02/22-rdf-syntax-ns#"
   xmlns:svg="http://www.w3.org/2000/svg"
   xmlns="http://www.w3.org/2000/svg"
   xmlns:sodipodi="http://sodipodi.sourceforge.net/DTD/sodipodi-0.dtd"
   xmlns:inkscape="http://www.inkscape.org/namespaces/inkscape"
   width="217.996"
   height="172.35522"
   version="1.1"
   id="svg8"
   sodipodi:docname="mustache.svg"
   inkscape:version="0.92.4 (5da689c313, 2019-01-14)">
  <metadata
     id="metadata14">
    <rdf:RDF>
      <cc:Work
         rdf:about="">
        <dc:format>image/svg+xml</dc:format>
        <dc:type
           rdf:resource="http://purl.org/dc/dcmitype/StillImage" />
        <dc:title></dc:title>
      </cc:Work>
    </rdf:RDF>
  </metadata>
  <defs
     id="defs12" />
  <sodipodi:namedview
     pagecolor="#ffffff"
     bordercolor="#666666"
     borderopacity="1"
     objecttolerance="10"
     gridtolerance="10"
     guidetolerance="10"
     inkscape:pageopacity="0"
     inkscape:pageshadow="2"
     inkscape:window-width="1920"
     inkscape:window-height="1017"
     id="namedview10"
     showgrid="false"
     inkscape:zoom="1.0731653"
     inkscape:cx="-2.7266186"
     inkscape:cy="278.48922"
     inkscape:window-x="0"
     inkscape:window-y="0"
     inkscape:window-maximized="1"
     inkscape:current-layer="g6"
     inkscape:pagecheckerboard="true"
     showguides="true"
     inkscape:guide-bbox="true"
     fit-margin-top="10"
     fit-margin-left="10"
     fit-margin-right="10"
     fit-margin-bottom="10" />
  <g
     id="g6"
     transform="translate(-332.31184,-325.53509)">
    <title
       id="title2">Layer 1</title>
    <text
       xml:space="preserve"
       style="font-style:normal;font-variant:normal;font-weight:600;font-stretch:normal;font-size:10.66666698px;line-height:1.25;font-family:'URW Gothic L';-inkscape-font-specification:'URW Gothic L, Semi-Bold';font-variant-ligatures:normal;font-variant-caps:normal;font-variant-numeric:normal;font-feature-settings:normal;text-align:end;letter-spacing:0px;word-spacing:0px;writing-mode:lr-tb;text-anchor:end;opacity:0.95;fill:#32373c;fill-opacity:1;stroke:#ffffff;stroke-width:2;stroke-miterlimit:4;stroke-dasharray:none;stroke-opacity:1"
       x="544.65051"
       y="398.82843"
       id="text4526"><tspan
         sodipodi:role="line"
         id="tspan4524"
         x="544.65051"
         y="398.82843"
         style="font-style:normal;font-variant:normal;font-weight:500;font-stretch:normal;font-size:85.33333588px;font-family:'JetBrains Mono Medium';-inkscape-font-specification:'JetBrains Mono Medium, Medium';font-variant-ligatures:normal;font-variant-caps:normal;font-variant-numeric:normal;font-feature-settings:normal;text-align:end;writing-mode:lr-tb;text-anchor:end;fill:#32373c;fill-opacity:1;stroke:#ffffff;stroke-width:2;stroke-miterlimit:4;stroke-dasharray:none;stroke-opacity:1"><tspan
   style="fill:#ffb900;fill-opacity:1;stroke:#ffffff;stroke-width:2;stroke-miterlimit:4;stroke-dasharray:none;stroke-opacity:1"
   id="tspan4528">x</tspan>SQL</tspan></text>
    <path
       id="svg_2-9"
       d="m 457.70481,438.16342 c 4.45067,-0.19965 11.33662,1.20625 16.97024,3.73921 8.78771,4.16187 15.76628,8.41323 25.31154,14.09392 9.54526,5.68069 23.2638,14.18007 25.77744,-1.37992 -0.0594,-7.7657 -6.85364,-8.93434 -9.7188,-8.99944 -2.86516,-0.0651 -0.2677,-3.95642 4.6508,-4.28983 8.11951,0.002 16.3689,10.48879 15.24445,19.55892 -0.54242,5.46945 -1.50665,12.35724 -9.49183,18.40839 -7.98518,6.05115 -31.66101,9.36327 -46.59624,6.61552 -12.74133,-2.1561 -26.58845,-6.4707 -38.54257,-14.10106 -11.95412,7.63036 -25.80124,11.94496 -38.54257,14.10106 -14.93523,2.74775 -38.61106,-0.56437 -46.59624,-6.61552 -7.98518,-6.05115 -8.94941,-12.93894 -9.49183,-18.40839 -1.12445,-9.07013 7.12494,-19.55707 15.24445,-19.55892 4.9185,0.33341 7.51596,4.22472 4.6508,4.28983 -2.86516,0.0651 -9.65937,1.23374 -9.7188,8.99944 2.51364,15.55999 16.23218,7.06061 25.77744,1.37992 9.54526,-5.68069 16.52383,-9.93205 25.31154,-14.09392 5.63362,-2.53296 12.51957,-3.93886 16.97024,-3.73921 4.5843,0.22781 11.51436,2.10132 16.39497,5.17736 4.88061,-3.07604 11.81067,-4.94955 16.39497,-5.17736 z"
       inkscape:connector-curvature="0"
       style="opacity:0.95;fill:#32373c;fill-opacity:1;fill-rule:evenodd;stroke:#ffffff;stroke-width:2;stroke-miterlimit:4;stroke-dasharray:none;stroke-opacity:1"
       sodipodi:nodetypes="czcczczccccsccccscccc" />
  </g>
</svg>
